<svg width="224" height="242" viewBox="0 0 224 242" fill="none" xmlns="http://www.w3.org/2000/svg">
<path d="M56.55 125.507C56.55 125.507 91.1544 119.307 102.696 91.6643C102.696 91.6643 304.985 133.124 185.69 241.43C185.69 241.43 229.861 199.691 205.391 166.128C205.391 166.128 219.177 207.587 165.151 235.51C164.872 235.51 282.201 152.022 56.55 125.507Z" fill="url(#paint0_linear_38_3)"/>
<path d="M167.406 110.283C181.471 117.331 191.316 124.099 197.232 128.612C199.756 56.1247 147.994 15.5136 147.994 15.5136C146.587 20.026 142.078 25.3868 135.614 27.643C129.14 29.8991 125.2 37.7957 125.2 37.7957C150.238 59.2294 162.618 84.8958 167.406 110.283Z" fill="url(#paint1_linear_38_3)"/>
<path d="M97.3489 96.7455C100.441 92.2332 101.289 89.1285 101.289 89.1285C114.786 91.3847 126.607 94.7689 137.3 98.1532C115.075 34.6911 73.9967 0 73.9967 0C72.8696 3.38426 60.7696 9.30431 52.6098 12.9682C44.4501 16.6417 46.7044 31.866 46.7044 31.866C68.9294 50.4843 85.5283 73.3353 97.3489 96.7455Z" fill="url(#paint2_linear_38_3)"/>
<path d="M182.03 166.976C179.217 198.283 160.652 231.277 160.652 231.277C173.59 211.251 182.598 192.643 188.503 175.152C187.097 172.327 184.852 169.512 182.03 166.976Z" fill="url(#paint3_linear_38_3)"/>
<path d="M179.785 164.72C176.692 162.175 173.311 159.639 169.371 157.383C165.999 190.946 155.026 216.332 155.026 216.332C161.49 208.995 166.558 197.155 166.558 197.155C166.837 205.611 159.804 222.252 159.804 222.252C171.346 203.075 176.972 179.665 179.785 164.72Z" fill="url(#paint4_linear_38_3)"/>
<path d="M109.439 230.149C102.127 226.206 91.7228 222.252 70.3359 205.611C86.6555 217.74 113.668 225.637 113.668 225.637C53.737 195.178 40.7892 167.535 40.7892 167.535C35.1631 167.256 31.5119 170.92 29.2576 172.327C27.0033 173.455 20.8185 173.455 20.8185 173.455C43.6023 210.412 109.439 230.149 109.439 230.149Z" fill="url(#paint5_linear_38_3)"/>
<path d="M82.7153 131.147C62.7349 127.763 48.3903 126.635 48.3903 126.635C56.2707 124.668 63.0239 122.123 68.9294 119.587C41.0783 99.2813 13.2175 94.2001 13.2175 94.2001C13.2175 94.2001 8.15978 95.897 7.31201 104.642C6.46424 113.387 0 114.515 0 114.515C104.382 142.438 120.133 228.741 120.133 228.741C113.1 189.817 97.9077 165 97.9077 165C113.948 181.362 124.921 223.101 124.921 223.101C120.981 179.665 103.254 150.614 82.7153 131.147Z" fill="url(#paint6_linear_38_3)"/>
<path d="M113.948 137.357C128.861 183.897 129.14 223.38 129.14 223.38C140.392 201.667 137.3 152.022 137.3 152.022C147.705 172.327 146.298 227.613 146.298 227.613C151.645 198.563 151.924 171.768 148.832 148.078C138.138 143.566 125.759 140.182 113.948 137.357Z" fill="url(#paint7_linear_38_3)"/>
<defs>
<linearGradient id="paint0_linear_38_3" x1="56.55" y1="92.6922" x2="191.167" y2="265.473" gradientUnits="userSpaceOnUse">
<stop stop-color="#22B267"/>
<stop offset="1" stop-color="#85D2A9"/>
</linearGradient>
<linearGradient id="paint1_linear_38_3" x1="125.2" y1="16.2898" x2="225.257" y2="89.8223" gradientUnits="userSpaceOnUse">
<stop stop-color="#22B267"/>
<stop offset="1" stop-color="#85D2A9"/>
</linearGradient>
<linearGradient id="paint2_linear_38_3" x1="46.4188" y1="0.673646" x2="137.215" y2="97.5596" gradientUnits="userSpaceOnUse">
<stop stop-color="#22B267"/>
<stop offset="1" stop-color="#85D2A9"/>
</linearGradient>
<linearGradient id="paint3_linear_38_3" x1="160.652" y1="167.417" x2="208.29" y2="191.197" gradientUnits="userSpaceOnUse">
<stop stop-color="#22B267"/>
<stop offset="1" stop-color="#85D2A9"/>
</linearGradient>
<linearGradient id="paint4_linear_38_3" x1="155.026" y1="157.828" x2="199.351" y2="177.324" gradientUnits="userSpaceOnUse">
<stop stop-color="#22B267"/>
<stop offset="1" stop-color="#85D2A9"/>
</linearGradient>
<linearGradient id="paint5_linear_38_3" x1="20.8185" y1="167.95" x2="71.4375" y2="254.436" gradientUnits="userSpaceOnUse">
<stop stop-color="#22B267"/>
<stop offset="1" stop-color="#85D2A9"/>
</linearGradient>
<linearGradient id="paint6_linear_38_3" x1="-8.54639e-07" y1="95.1235" x2="124.433" y2="228.273" gradientUnits="userSpaceOnUse">
<stop stop-color="#22B267"/>
<stop offset="1" stop-color="#85D2A9"/>
</linearGradient>
<linearGradient id="paint7_linear_38_3" x1="113.948" y1="137.976" x2="178.434" y2="168.335" gradientUnits="userSpaceOnUse">
<stop stop-color="#22B267"/>
<stop offset="1" stop-color="#85D2A9"/>
</linearGradient>
</defs>
</svg>
